<svg xmlns="http://www.w3.org/2000/svg" viewBox="0 0 120 120" role="img" aria-label="Asisten Utama">
    <defs>
        <linearGradient id="assistantMainBlue" x1="18" y1="18" x2="102" y2="102" gradientUnits="userSpaceOnUse">
            <stop offset="0" stop-color="#0875D1"/>
            <stop offset="1" stop-color="#005BAA"/>
        </linearGradient>
        <filter id="assistantSoftShadow" x="-20%" y="-20%" width="140%" height="140%" color-interpolation-filters="sRGB">
            <feDropShadow dx="0" dy="6" stdDeviation="7" flood-color="#004D91" flood-opacity="0.22"/>
        </filter>
    </defs>
    <circle cx="60" cy="60" r="52" fill="url(#assistantMainBlue)" filter="url(#assistantSoftShadow)"/>
    <g fill="none" stroke="#FFFFFF" stroke-width="5.8" stroke-linecap="round" stroke-linejoin="round">
        <path d="M31 56 L52 38 L67 57 L87 34"/>
        <path d="M31 56 L50 82 L79 82 L67 57"/>
        <path d="M52 38 L79 82"/>
        <path d="M67 57 L94 60"/>
        <path d="M50 82 L67 57"/>
    </g>
    <g fill="#FFFFFF">
        <circle cx="31" cy="56" r="11"/>
        <circle cx="52" cy="38" r="8"/>
        <circle cx="67" cy="57" r="7"/>
        <circle cx="87" cy="34" r="13"/>
        <circle cx="94" cy="60" r="8"/>
        <circle cx="79" cy="82" r="13"/>
        <circle cx="50" cy="82" r="8"/>
    </g>
</svg>
