<svg xmlns="http://www.w3.org/2000/svg" viewBox="0 0 96 96" role="img" aria-label="Cari Peluang">
  <defs>
    <radialGradient id="candidateSearchGradient" cx="35%" cy="24%" r="78%">
      <stop offset="0%" stop-color="#48AEE7"/>
      <stop offset="52%" stop-color="#0872C8"/>
      <stop offset="100%" stop-color="#004E99"/>
    </radialGradient>
    <filter id="candidateSearchShadow" x="-20%" y="-20%" width="140%" height="145%">
      <feDropShadow dx="0" dy="5" stdDeviation="4" flood-color="#003F7A" flood-opacity="0.28"/>
    </filter>
  </defs>
  <circle cx="48" cy="47" r="40" fill="url(#candidateSearchGradient)" filter="url(#candidateSearchShadow)"/>
  <circle cx="48" cy="47" r="39" fill="none" stroke="#0A559E" stroke-width="2"/>
  <rect x="22" y="24" width="50" height="36" rx="4" fill="none" stroke="#F6FBFF" stroke-width="4"/>
  <path d="M22 34h50M30 29h1M37 29h1M44 29h1" stroke="#D7EEFF" stroke-width="3" stroke-linecap="round"/>
  <path d="M31 52v-8M42 52V39M53 52V34M31 52h28" fill="none" stroke="#D7EEFF" stroke-width="4" stroke-linecap="round" stroke-linejoin="round"/>
  <path d="M50 37l10-10v7h7" fill="none" stroke="#F6FBFF" stroke-width="3.4" stroke-linecap="round" stroke-linejoin="round"/>
  <circle cx="57" cy="58" r="13" fill="none" stroke="#F6FBFF" stroke-width="5"/>
  <path d="M67 68l9 9" fill="none" stroke="#F6FBFF" stroke-width="5" stroke-linecap="round"/>
  <path d="M44 72h14M44 72c0 4-3 6-7 6" fill="none" stroke="#D7EEFF" stroke-width="3.4" stroke-linecap="round"/>
  <circle cx="35" cy="78" r="3.2" fill="#D7EEFF"/>
</svg>
